<svg width="24" height="25" viewBox="0 0 24 25" fill="none" xmlns="http://www.w3.org/2000/svg">
<g id="icon-user">
<path id="Vector" d="M20 21.5V19.5C20 18.4391 19.5786 17.4217 18.8284 16.6716C18.0783 15.9214 17.0609 15.5 16 15.5H8C6.93913 15.5 5.92172 15.9214 5.17157 16.6716C4.42143 17.4217 4 18.4391 4 19.5V21.5" stroke="url(#paint0_linear_385_347)" stroke-width="2" stroke-linecap="round" stroke-linejoin="round"/>
<path id="Vector_2" d="M12 11.5C14.2091 11.5 16 9.70914 16 7.5C16 5.29086 14.2091 3.5 12 3.5C9.79086 3.5 8 5.29086 8 7.5C8 9.70914 9.79086 11.5 12 11.5Z" stroke="url(#paint1_linear_385_347)" stroke-width="2" stroke-linecap="round" stroke-linejoin="round"/>
</g>
<defs>
<linearGradient id="paint0_linear_385_347" x1="17.6742" y1="16.4177" x2="14.6491" y2="23.9598" gradientUnits="userSpaceOnUse">
<stop stop-color="#259D80"/>
<stop offset="0.0001" stop-color="#259D80"/>
<stop offset="1" stop-color="#04634D"/>
</linearGradient>
<linearGradient id="paint1_linear_385_347" x1="14.8371" y1="4.72355" x2="9.01329" y2="10.1686" gradientUnits="userSpaceOnUse">
<stop stop-color="#259D80"/>
<stop offset="0.0001" stop-color="#259D80"/>
<stop offset="1" stop-color="#04634D"/>
</linearGradient>
</defs>
</svg>
