<svg width="24" height="25" viewBox="0 0 24 25" fill="none" xmlns="http://www.w3.org/2000/svg">
<g id="icon-folder">
<path id="Vector" d="M22 19.5C22 20.0304 21.7893 20.5391 21.4142 20.9142C21.0391 21.2893 20.5304 21.5 20 21.5H4C3.46957 21.5 2.96086 21.2893 2.58579 20.9142C2.21071 20.5391 2 20.0304 2 19.5V5.5C2 4.96957 2.21071 4.46086 2.58579 4.08579C2.96086 3.71071 3.46957 3.5 4 3.5H9L11 6.5H20C20.5304 6.5 21.0391 6.71071 21.4142 7.08579C21.7893 7.46086 22 7.96957 22 8.5V19.5Z" stroke="url(#paint0_linear_385_359)" stroke-width="2" stroke-linecap="round" stroke-linejoin="round"/>
</g>
<defs>
<linearGradient id="paint0_linear_385_359" x1="19.0928" y1="6.25298" x2="5.96906" y2="19.8865" gradientUnits="userSpaceOnUse">
<stop stop-color="#259D80"/>
<stop offset="0.0001" stop-color="#259D80"/>
<stop offset="1" stop-color="#04634D"/>
</linearGradient>
</defs>
</svg>
